<svg xmlns="http://www.w3.org/2000/svg" xmlns:xlink="http://www.w3.org/1999/xlink" width="1024" zoomAndPan="magnify" viewBox="0 0 768 576" height="768" preserveAspectRatio="xMidYMid meet" version="1.0"><defs><clipPath id="d98ca6d991"><path d="M 392.59375 139 L 569.832031 139 L 569.832031 314 L 392.59375 314 Z M 392.59375 139 " clip-rule="nonzero"/></clipPath><clipPath id="d4c15e091a"><path d="M 196.390625 162 L 220.640625 162 L 220.640625 186.539062 L 196.390625 186.539062 Z M 196.390625 162 " clip-rule="nonzero"/></clipPath><clipPath id="e9868f3a6d"><path d="M 267 138 L 392.59375 138 L 392.59375 314 L 267 314 Z M 267 138 " clip-rule="nonzero"/></clipPath></defs><path fill="#fffdf7" d="M 521.761719 276.96875 L 448.15625 276.96875 L 440.066406 268.886719 L 422.777344 268.886719 C 421.960938 267.636719 420.566406 266.820312 418.972656 266.820312 C 416.464844 266.820312 414.425781 268.855469 414.425781 271.355469 C 414.425781 273.867188 416.464844 275.894531 418.972656 275.894531 C 420.597656 275.894531 422.023438 275.035156 422.828125 273.742188 L 438.050781 273.742188 L 446.140625 281.835938 L 522.101562 281.835938 C 522.929688 282.949219 524.253906 283.683594 525.75 283.683594 C 528.25 283.683594 530.285156 281.648438 530.285156 279.136719 C 530.285156 276.636719 528.25 274.601562 525.75 274.601562 C 524.023438 274.601562 522.527344 275.5625 521.761719 276.96875 " fill-opacity="1" fill-rule="nonzero"/><path fill="#fffdf7" d="M 503.234375 163.878906 L 464.585938 163.878906 L 454.882812 173.589844 L 444.230469 173.589844 L 434.03125 163.382812 L 421.878906 163.382812 C 421.082031 162.070312 419.644531 161.191406 417.992188 161.191406 C 415.492188 161.191406 413.457031 163.214844 413.457031 165.726562 C 413.457031 168.238281 415.492188 170.265625 417.992188 170.265625 C 419.574219 170.265625 420.957031 169.46875 421.773438 168.25 L 432.015625 168.25 L 442.214844 178.449219 L 456.898438 178.449219 L 466.601562 168.746094 L 503.152344 168.746094 C 503.945312 170.046875 505.382812 170.914062 507.015625 170.914062 C 509.527344 170.914062 511.5625 168.878906 511.5625 166.378906 C 511.5625 163.867188 509.527344 161.84375 507.015625 161.84375 C 505.433594 161.84375 504.039062 162.648438 503.234375 163.878906 " fill-opacity="1" fill-rule="nonzero"/><g clip-path="url(#d98ca6d991)"><path fill="#fffdf7" d="M 569.410156 244.085938 C 569.183594 241.988281 567.457031 240.285156 565.347656 240.085938 C 563.46875 239.910156 561.804688 240.882812 560.957031 242.371094 L 484.085938 242.371094 L 475.878906 234.167969 L 485.179688 224.867188 L 518.734375 224.867188 C 519.613281 226.28125 521.246094 227.179688 523.085938 226.984375 C 525.160156 226.769531 526.867188 225.074219 527.09375 222.996094 C 527.402344 220.257812 525.265625 217.933594 522.589844 217.933594 C 520.988281 217.933594 519.589844 218.757812 518.773438 220 L 483.164062 220 L 471.4375 231.738281 L 415.8125 231.738281 C 410.902344 231.738281 406.933594 227.757812 406.933594 222.863281 C 406.933594 217.953125 410.902344 213.984375 415.8125 213.984375 L 462.746094 213.984375 L 473.875 202.855469 L 557.320312 202.855469 C 558.15625 204.023438 559.539062 204.789062 561.101562 204.757812 C 563.476562 204.714844 565.484375 202.730469 565.542969 200.34375 C 565.617188 197.78125 563.5625 195.683594 561.007812 195.683594 C 559.3125 195.683594 557.835938 196.613281 557.0625 197.988281 L 471.859375 197.988281 L 460.730469 209.117188 L 415.8125 209.117188 C 410.902344 209.117188 406.933594 205.140625 406.933594 200.242188 C 406.933594 195.332031 410.902344 191.363281 415.8125 191.363281 L 483.828125 191.363281 L 494.347656 180.84375 L 520.914062 180.84375 C 521.804688 182.261719 523.4375 183.160156 525.273438 182.964844 C 527.351562 182.738281 529.058594 181.050781 529.285156 178.976562 C 529.585938 176.238281 527.457031 173.910156 524.769531 173.910156 C 523.175781 173.910156 521.78125 174.738281 520.964844 175.976562 L 492.332031 175.976562 L 481.8125 186.496094 L 427.117188 186.496094 C 415.96875 186.496094 406.933594 177.464844 406.933594 166.316406 C 406.933594 155.167969 415.96875 146.125 427.117188 146.125 L 521.628906 146.125 C 522.527344 147.53125 524.160156 148.410156 525.976562 148.210938 C 528.054688 147.972656 529.738281 146.289062 529.976562 144.214844 C 530.277344 141.476562 528.136719 139.160156 525.460938 139.160156 C 523.847656 139.160156 522.433594 139.996094 521.628906 141.269531 L 406.304688 141.269531 L 397.957031 149.328125 C 396.46875 150.773438 394.523438 151.5 392.59375 151.5 L 392.59375 313.816406 C 395.332031 313.816406 398.058594 312.917969 400.332031 311.121094 C 405.746094 306.800781 412.464844 304.457031 419.398438 304.457031 L 521.917969 304.457031 C 522.804688 305.851562 524.4375 306.738281 526.265625 306.53125 C 528.332031 306.304688 530.027344 304.621094 530.253906 302.542969 C 530.566406 299.792969 528.425781 297.480469 525.75 297.480469 C 524.128906 297.480469 522.722656 298.316406 521.917969 299.589844 L 427.117188 299.589844 C 415.96875 299.589844 406.933594 290.554688 406.933594 279.40625 C 406.933594 268.257812 415.96875 259.214844 427.117188 259.214844 L 468.191406 259.214844 L 479.03125 270.066406 L 506.519531 270.066406 L 517.460938 259.121094 L 542.253906 259.121094 C 543.152344 260.507812 544.785156 261.363281 546.59375 261.15625 C 548.660156 260.921875 550.332031 259.234375 550.5625 257.167969 C 550.871094 254.429688 548.730469 252.105469 546.054688 252.105469 C 544.421875 252.105469 542.996094 252.964844 542.191406 254.265625 L 515.4375 254.265625 L 504.515625 265.199219 L 481.046875 265.199219 L 470.207031 254.347656 L 415.8125 254.347656 C 410.902344 254.347656 406.933594 250.378906 406.933594 245.480469 C 406.933594 240.574219 410.902344 236.59375 415.8125 236.59375 L 471.4375 236.59375 L 482.070312 247.238281 L 561.203125 247.238281 C 562.03125 248.394531 563.375 249.148438 564.902344 249.148438 C 567.582031 249.148438 569.71875 246.824219 569.410156 244.085938 " fill-opacity="1" fill-rule="nonzero"/></g><path fill="#e3bd85" d="M 252.210938 217.613281 L 225.457031 217.613281 L 225.457031 190.859375 L 252.210938 190.859375 L 252.210938 217.613281 " fill-opacity="1" fill-rule="nonzero"/><g clip-path="url(#d4c15e091a)"><path fill="#e3bd85" d="M 220.144531 186.351562 L 196.390625 186.351562 L 196.390625 162.605469 L 220.144531 162.605469 L 220.144531 186.351562 " fill-opacity="1" fill-rule="nonzero"/></g><path fill="#e3bd85" d="M 252.210938 157.863281 L 234.457031 157.863281 L 234.457031 140.101562 L 252.210938 140.101562 L 252.210938 157.863281 " fill-opacity="1" fill-rule="nonzero"/><path fill="#e3bd85" d="M 252.210938 256.929688 L 234.457031 256.929688 L 234.457031 239.167969 L 252.210938 239.167969 L 252.210938 256.929688 " fill-opacity="1" fill-rule="nonzero"/><g clip-path="url(#e9868f3a6d)"><path fill="#e3bd85" d="M 356.425781 256.929688 L 338.671875 256.929688 L 338.671875 239.167969 L 356.425781 239.167969 Z M 338.1875 226.488281 L 311.433594 226.488281 L 311.433594 199.734375 L 338.1875 199.734375 Z M 306.484375 191.828125 L 288.730469 191.828125 L 288.730469 174.078125 L 306.484375 174.078125 Z M 299.351562 244.242188 L 281.601562 244.242188 L 281.601562 226.488281 L 299.351562 226.488281 Z M 320.917969 148.988281 L 338.671875 148.988281 L 338.671875 166.738281 L 320.917969 166.738281 Z M 387.230469 149.328125 C 387.230469 149.328125 329.796875 123.144531 267 150.628906 L 267 195.355469 L 281.601562 195.355469 L 281.601562 213.105469 L 267 213.105469 L 267 256.929688 L 286.09375 256.929688 L 286.09375 283.683594 L 267 283.683594 L 267 313.816406 C 312.167969 291.082031 379.4375 306.800781 384.863281 311.121094 C 387.125 312.917969 389.855469 313.816406 392.59375 313.816406 L 392.59375 151.5 C 390.660156 151.5 388.726562 150.773438 387.230469 149.328125 " fill-opacity="1" fill-rule="nonzero"/></g><path fill="#e3bd85" d="M 185.617188 368.757812 L 215.378906 368.757812 L 215.378906 379.378906 L 196.941406 379.378906 L 196.941406 388.96875 L 210.375 388.96875 L 210.375 399.59375 L 196.941406 399.59375 L 196.941406 410.175781 L 215.75 410.175781 L 215.75 420.796875 L 185.617188 420.796875 Z M 185.617188 368.757812 " fill-opacity="1" fill-rule="nonzero"/><path fill="#e3bd85" d="M 239.96875 368.757812 L 269.316406 368.757812 L 269.316406 379.378906 L 251.292969 379.378906 L 251.292969 391.203125 L 264.355469 391.203125 L 264.355469 401.867188 L 251.292969 401.867188 L 251.292969 420.796875 L 239.96875 420.796875 Z M 239.96875 368.757812 " fill-opacity="1" fill-rule="nonzero"/><path fill="#e3bd85" d="M 305.960938 422.203125 C 301.933594 422.203125 298.316406 421.292969 295.089844 419.476562 C 291.886719 417.65625 289.304688 415.042969 287.320312 411.621094 L 295.257812 405.050781 C 297.953125 409.84375 301.496094 412.242188 305.878906 412.242188 C 307.863281 412.242188 309.453125 411.777344 310.675781 410.835938 C 311.882812 409.875 312.492188 408.605469 312.492188 407.035156 C 312.492188 405.605469 311.894531 404.367188 310.714844 403.3125 C 309.527344 402.238281 307.378906 401.03125 304.265625 399.675781 C 299.441406 397.558594 295.929688 395.191406 293.726562 392.566406 C 291.515625 389.953125 290.421875 386.839844 290.421875 383.226562 C 290.421875 380.941406 290.832031 378.84375 291.660156 376.941406 C 292.488281 375.019531 293.644531 373.367188 295.132812 371.980469 C 296.640625 370.609375 298.4375 369.542969 300.503906 368.800781 C 302.59375 368.054688 304.886719 367.683594 307.367188 367.683594 C 313.949219 367.683594 319.519531 370.515625 324.066406 376.15625 L 316.542969 382.976562 C 315.074219 381.054688 313.617188 379.648438 312.160156 378.761719 C 310.726562 377.851562 309.125 377.398438 307.367188 377.398438 C 305.652344 377.398438 304.289062 377.832031 303.273438 378.679688 C 302.28125 379.535156 301.785156 380.683594 301.785156 382.109375 C 301.785156 383.742188 302.449219 385.074219 303.769531 386.117188 C 305.113281 387.140625 307.140625 388.246094 309.847656 389.425781 C 314.777344 391.605469 318.332031 394.035156 320.511719 396.699219 C 322.710938 399.34375 323.816406 402.488281 323.816406 406.125 C 323.816406 408.5 323.375 410.671875 322.496094 412.65625 C 321.605469 414.617188 320.398438 416.3125 318.859375 417.738281 C 317.308594 419.144531 315.4375 420.238281 313.238281 421.003906 C 311.023438 421.800781 308.605469 422.203125 305.960938 422.203125 Z M 305.960938 422.203125 " fill-opacity="1" fill-rule="nonzero"/><path fill="#e3bd85" d="M 347.117188 368.757812 L 358.445312 368.757812 L 358.445312 389.09375 L 378.738281 389.09375 L 378.738281 368.757812 L 390.066406 368.757812 L 390.066406 420.796875 L 378.738281 420.796875 L 378.738281 399.757812 L 358.445312 399.757812 L 358.445312 420.796875 L 347.117188 420.796875 Z M 347.117188 368.757812 " fill-opacity="1" fill-rule="nonzero"/><path fill="#e3bd85" d="M 431.679688 367.847656 L 438.914062 367.847656 L 459.414062 420.796875 L 447.429688 420.796875 L 444.246094 412.035156 L 426.304688 412.035156 L 423.207031 420.796875 L 411.179688 420.796875 Z M 440.773438 402.238281 L 435.316406 386.945312 L 429.820312 402.238281 Z M 440.773438 402.238281 " fill-opacity="1" fill-rule="nonzero"/><path fill="#e3bd85" d="M 491.214844 389.796875 L 491.214844 420.796875 L 480.507812 420.796875 L 480.507812 367.847656 L 486.421875 367.847656 L 515.4375 399.757812 L 515.4375 368.757812 L 526.183594 368.757812 L 526.183594 421.75 L 520.273438 421.75 Z M 491.214844 389.796875 " fill-opacity="1" fill-rule="nonzero"/><path fill="#e3bd85" d="M 552.328125 368.757812 L 582.089844 368.757812 L 582.089844 379.378906 L 563.65625 379.378906 L 563.65625 388.96875 L 577.089844 388.96875 L 577.089844 399.59375 L 563.65625 399.59375 L 563.65625 410.175781 L 582.460938 410.175781 L 582.460938 420.796875 L 552.328125 420.796875 Z M 552.328125 368.757812 " fill-opacity="1" fill-rule="nonzero"/></svg>