<svg xmlns="http://www.w3.org/2000/svg" xmlns:xlink="http://www.w3.org/1999/xlink" width="394" zoomAndPan="magnify" viewBox="0 0 295.5 130.499996" height="174" preserveAspectRatio="xMidYMid meet" version="1.0"><defs><g/><clipPath id="28fa915107"><path d="M 151 6 L 218 6 L 218 72.472656 L 151 72.472656 Z M 151 6 " clip-rule="nonzero"/></clipPath><clipPath id="f2941aaf6b"><path d="M 76.832031 14 L 86 14 L 86 24 L 76.832031 24 Z M 76.832031 14 " clip-rule="nonzero"/></clipPath><clipPath id="eb858e1496"><path d="M 103 5 L 151 5 L 151 72.472656 L 103 72.472656 Z M 103 5 " clip-rule="nonzero"/></clipPath></defs><path fill="#333333" d="M 199.828125 58.183594 L 172.003906 58.183594 L 168.945312 55.128906 L 162.410156 55.128906 C 162.101562 54.65625 161.574219 54.347656 160.972656 54.347656 C 160.023438 54.347656 159.253906 55.117188 159.253906 56.0625 C 159.253906 57.011719 160.023438 57.777344 160.972656 57.777344 C 161.585938 57.777344 162.125 57.453125 162.429688 56.964844 L 168.183594 56.964844 L 171.242188 60.023438 L 199.957031 60.023438 C 200.269531 60.445312 200.769531 60.722656 201.335938 60.722656 C 202.28125 60.722656 203.050781 59.953125 203.050781 59.003906 C 203.050781 58.058594 202.28125 57.289062 201.335938 57.289062 C 200.683594 57.289062 200.117188 57.652344 199.828125 58.183594 " fill-opacity="1" fill-rule="nonzero"/><path fill="#333333" d="M 192.824219 15.433594 L 178.214844 15.433594 L 174.546875 19.105469 L 170.519531 19.105469 L 166.664062 15.246094 L 162.070312 15.246094 C 161.769531 14.75 161.226562 14.417969 160.601562 14.417969 C 159.65625 14.417969 158.886719 15.183594 158.886719 16.132812 C 158.886719 17.082031 159.65625 17.847656 160.601562 17.847656 C 161.199219 17.847656 161.722656 17.546875 162.03125 17.085938 L 165.902344 17.085938 L 169.757812 20.941406 L 175.308594 20.941406 L 178.976562 17.273438 L 192.792969 17.273438 C 193.09375 17.765625 193.636719 18.09375 194.253906 18.09375 C 195.203125 18.09375 195.972656 17.324219 195.972656 16.378906 C 195.972656 15.429688 195.203125 14.664062 194.253906 14.664062 C 193.65625 14.664062 193.128906 14.96875 192.824219 15.433594 " fill-opacity="1" fill-rule="nonzero"/><g clip-path="url(#28fa915107)"><path fill="#333333" d="M 217.839844 45.753906 C 217.753906 44.960938 217.101562 44.316406 216.304688 44.242188 C 215.59375 44.175781 214.964844 44.542969 214.644531 45.105469 L 185.585938 45.105469 L 182.484375 42.003906 L 186 38.488281 L 198.683594 38.488281 C 199.015625 39.023438 199.632812 39.363281 200.328125 39.289062 C 201.113281 39.207031 201.757812 38.566406 201.84375 37.78125 C 201.960938 36.746094 201.152344 35.867188 200.140625 35.867188 C 199.535156 35.867188 199.007812 36.179688 198.699219 36.648438 L 185.238281 36.648438 L 180.804688 41.085938 L 159.777344 41.085938 C 157.921875 41.085938 156.421875 39.582031 156.421875 37.730469 C 156.421875 35.875 157.921875 34.375 159.777344 34.375 L 177.519531 34.375 L 181.726562 30.167969 L 213.269531 30.167969 C 213.585938 30.609375 214.109375 30.898438 214.699219 30.886719 C 215.597656 30.871094 216.355469 30.121094 216.378906 29.21875 C 216.40625 28.25 215.628906 27.457031 214.664062 27.457031 C 214.023438 27.457031 213.464844 27.808594 213.171875 28.328125 L 180.964844 28.328125 L 176.757812 32.535156 L 159.777344 32.535156 C 157.921875 32.535156 156.421875 31.03125 156.421875 29.179688 C 156.421875 27.324219 157.921875 25.824219 159.777344 25.824219 L 185.488281 25.824219 L 189.464844 21.847656 L 199.507812 21.847656 C 199.84375 22.382812 200.460938 22.722656 201.15625 22.648438 C 201.941406 22.5625 202.585938 21.925781 202.671875 21.140625 C 202.785156 20.105469 201.980469 19.226562 200.964844 19.226562 C 200.363281 19.226562 199.835938 19.539062 199.527344 20.007812 L 188.703125 20.007812 L 184.726562 23.984375 L 164.050781 23.984375 C 159.835938 23.984375 156.421875 20.570312 156.421875 16.355469 C 156.421875 12.140625 159.835938 8.722656 164.050781 8.722656 L 199.777344 8.722656 C 200.117188 9.253906 200.734375 9.585938 201.421875 9.511719 C 202.207031 9.421875 202.84375 8.785156 202.933594 8 C 203.046875 6.964844 202.238281 6.089844 201.226562 6.089844 C 200.617188 6.089844 200.082031 6.40625 199.777344 6.886719 L 156.183594 6.886719 L 153.027344 9.933594 C 152.464844 10.480469 151.730469 10.753906 151 10.753906 L 151 72.113281 C 152.035156 72.113281 153.066406 71.773438 153.925781 71.09375 C 155.972656 69.460938 158.511719 68.574219 161.132812 68.574219 L 199.886719 68.574219 C 200.222656 69.101562 200.839844 69.4375 201.53125 69.359375 C 202.3125 69.273438 202.953125 68.636719 203.039062 67.851562 C 203.15625 66.8125 202.347656 65.9375 201.335938 65.9375 C 200.722656 65.9375 200.191406 66.253906 199.886719 66.734375 L 164.050781 66.734375 C 159.835938 66.734375 156.421875 63.320312 156.421875 59.105469 C 156.421875 54.890625 159.835938 51.472656 164.050781 51.472656 L 179.578125 51.472656 L 183.675781 55.574219 L 194.066406 55.574219 L 198.203125 51.4375 L 207.574219 51.4375 C 207.914062 51.960938 208.53125 52.285156 209.214844 52.207031 C 209.996094 52.117188 210.628906 51.480469 210.714844 50.699219 C 210.832031 49.664062 210.023438 48.785156 209.011719 48.785156 C 208.394531 48.785156 207.855469 49.109375 207.550781 49.601562 L 197.4375 49.601562 L 193.308594 53.734375 L 184.4375 53.734375 L 180.339844 49.632812 L 159.777344 49.632812 C 157.921875 49.632812 156.421875 48.132812 156.421875 46.28125 C 156.421875 44.425781 157.921875 42.921875 159.777344 42.921875 L 180.804688 42.921875 L 184.824219 46.945312 L 214.738281 46.945312 C 215.050781 47.382812 215.558594 47.667969 216.136719 47.667969 C 217.148438 47.667969 217.957031 46.789062 217.839844 45.753906 " fill-opacity="1" fill-rule="nonzero"/></g><path fill="#1f427a" d="M 97.933594 35.746094 L 87.820312 35.746094 L 87.820312 25.632812 L 97.933594 25.632812 L 97.933594 35.746094 " fill-opacity="1" fill-rule="nonzero"/><g clip-path="url(#f2941aaf6b)"><path fill="#1f427a" d="M 85.8125 23.929688 L 76.832031 23.929688 L 76.832031 14.953125 L 85.8125 14.953125 L 85.8125 23.929688 " fill-opacity="1" fill-rule="nonzero"/></g><path fill="#1f427a" d="M 97.933594 13.160156 L 91.222656 13.160156 L 91.222656 6.445312 L 97.933594 6.445312 L 97.933594 13.160156 " fill-opacity="1" fill-rule="nonzero"/><path fill="#1f427a" d="M 97.933594 50.609375 L 91.222656 50.609375 L 91.222656 43.894531 L 97.933594 43.894531 L 97.933594 50.609375 " fill-opacity="1" fill-rule="nonzero"/><g clip-path="url(#eb858e1496)"><path fill="#1f427a" d="M 137.328125 50.609375 L 130.617188 50.609375 L 130.617188 43.894531 L 137.328125 43.894531 Z M 130.433594 39.101562 L 120.320312 39.101562 L 120.320312 28.988281 L 130.433594 28.988281 Z M 118.449219 26 L 111.738281 26 L 111.738281 19.289062 L 118.449219 19.289062 Z M 115.753906 45.8125 L 109.042969 45.8125 L 109.042969 39.101562 L 115.753906 39.101562 Z M 123.90625 9.804688 L 130.617188 9.804688 L 130.617188 16.515625 L 123.90625 16.515625 Z M 148.972656 9.933594 C 148.972656 9.933594 127.261719 0.0351562 103.523438 10.425781 L 103.523438 27.332031 L 109.042969 27.332031 L 109.042969 34.042969 L 103.523438 34.042969 L 103.523438 50.609375 L 110.742188 50.609375 L 110.742188 60.722656 L 103.523438 60.722656 L 103.523438 72.113281 C 120.597656 63.519531 146.027344 69.460938 148.078125 71.09375 C 148.933594 71.773438 149.964844 72.113281 151 72.113281 L 151 10.753906 C 150.269531 10.753906 149.539062 10.480469 148.972656 9.933594 " fill-opacity="1" fill-rule="nonzero"/></g><g fill="#1f427a" fill-opacity="1"><g transform="translate(70.556898, 112.5536)"><g><path d="M 2.203125 -19.671875 L 13.453125 -19.671875 L 13.453125 -15.65625 L 6.484375 -15.65625 L 6.484375 -12.03125 L 11.5625 -12.03125 L 11.5625 -8.015625 L 6.484375 -8.015625 L 6.484375 -4.015625 L 13.59375 -4.015625 L 13.59375 0 L 2.203125 0 Z M 2.203125 -19.671875 "/></g></g></g><g fill="#1f427a" fill-opacity="1"><g transform="translate(91.102565, 112.5536)"><g><path d="M 2.203125 -19.671875 L 13.296875 -19.671875 L 13.296875 -15.65625 L 6.484375 -15.65625 L 6.484375 -11.1875 L 11.421875 -11.1875 L 11.421875 -7.15625 L 6.484375 -7.15625 L 6.484375 0 L 2.203125 0 Z M 2.203125 -19.671875 "/></g></g></g><g fill="#1f427a" fill-opacity="1"><g transform="translate(110.767778, 112.5536)"><g><path d="M 7.484375 0.53125 C 5.960938 0.53125 4.59375 0.1875 3.375 -0.5 C 2.164062 -1.1875 1.1875 -2.175781 0.4375 -3.46875 L 3.4375 -5.953125 C 4.457031 -4.140625 5.796875 -3.234375 7.453125 -3.234375 C 8.203125 -3.234375 8.804688 -3.410156 9.265625 -3.765625 C 9.722656 -4.128906 9.953125 -4.609375 9.953125 -5.203125 C 9.953125 -5.742188 9.726562 -6.210938 9.28125 -6.609375 C 8.832031 -7.015625 8.019531 -7.472656 6.84375 -7.984375 C 5.019531 -8.785156 3.691406 -9.679688 2.859375 -10.671875 C 2.023438 -11.660156 1.609375 -12.835938 1.609375 -14.203125 C 1.609375 -15.066406 1.765625 -15.859375 2.078125 -16.578125 C 2.390625 -17.304688 2.828125 -17.929688 3.390625 -18.453125 C 3.960938 -18.972656 4.640625 -19.375 5.421875 -19.65625 C 6.210938 -19.9375 7.078125 -20.078125 8.015625 -20.078125 C 10.503906 -20.078125 12.609375 -19.007812 14.328125 -16.875 L 11.484375 -14.296875 C 10.929688 -15.023438 10.378906 -15.554688 9.828125 -15.890625 C 9.285156 -16.234375 8.679688 -16.40625 8.015625 -16.40625 C 7.367188 -16.40625 6.851562 -16.242188 6.46875 -15.921875 C 6.09375 -15.597656 5.90625 -15.164062 5.90625 -14.625 C 5.90625 -14.007812 6.15625 -13.503906 6.65625 -13.109375 C 7.164062 -12.722656 7.929688 -12.304688 8.953125 -11.859375 C 10.816406 -11.035156 12.160156 -10.117188 12.984375 -9.109375 C 13.816406 -8.109375 14.234375 -6.921875 14.234375 -5.546875 C 14.234375 -4.648438 14.066406 -3.828125 13.734375 -3.078125 C 13.398438 -2.335938 12.941406 -1.695312 12.359375 -1.15625 C 11.773438 -0.625 11.066406 -0.210938 10.234375 0.078125 C 9.398438 0.378906 8.484375 0.53125 7.484375 0.53125 Z M 7.484375 0.53125 "/></g></g></g><g fill="#1f427a" fill-opacity="1"><g transform="translate(131.606938, 112.5536)"><g><path d="M 2.203125 -19.671875 L 6.484375 -19.671875 L 6.484375 -11.984375 L 14.15625 -11.984375 L 14.15625 -19.671875 L 18.4375 -19.671875 L 18.4375 0 L 14.15625 0 L 14.15625 -7.953125 L 6.484375 -7.953125 L 6.484375 0 L 2.203125 0 Z M 2.203125 -19.671875 "/></g></g></g><g fill="#1f427a" fill-opacity="1"><g transform="translate(157.728842, 112.5536)"><g><path d="M 8.046875 -20.015625 L 10.78125 -20.015625 L 18.53125 0 L 14 0 L 12.796875 -3.3125 L 6.015625 -3.3125 L 4.84375 0 L 0.296875 0 Z M 11.484375 -7.015625 L 9.421875 -12.796875 L 7.34375 -7.015625 Z M 11.484375 -7.015625 "/></g></g></g><g fill="#1f427a" fill-opacity="1"><g transform="translate(182.031122, 112.5536)"><g><path d="M 6.25 -11.71875 L 6.25 0 L 2.203125 0 L 2.203125 -20.015625 L 4.4375 -20.015625 L 15.40625 -7.953125 L 15.40625 -19.671875 L 19.46875 -19.671875 L 19.46875 0.359375 L 17.234375 0.359375 Z M 6.25 -11.71875 "/></g></g></g><g fill="#1f427a" fill-opacity="1"><g transform="translate(209.180221, 112.5536)"><g><path d="M 2.203125 -19.671875 L 13.453125 -19.671875 L 13.453125 -15.65625 L 6.484375 -15.65625 L 6.484375 -12.03125 L 11.5625 -12.03125 L 11.5625 -8.015625 L 6.484375 -8.015625 L 6.484375 -4.015625 L 13.59375 -4.015625 L 13.59375 0 L 2.203125 0 Z M 2.203125 -19.671875 "/></g></g></g></svg>