<svg width="203" height="147" viewBox="0 0 203 147" fill="none" xmlns="http://www.w3.org/2000/svg">
<path d="M22.9266 99.1239V0.674312V0H72.8257H180.041V101.147L201.619 132.165C204.317 140.257 200.046 145.427 197.573 147H7.41743C2.56239 147 0.449541 143.853 0 142.28V132.165L22.9266 99.1239Z" fill="#593F2C"/>
<path d="M31.0186 90.3578V9.44035L100.664 8.98782C106.023 4.94016 118.679 1.3486 132.165 1.3486H160.486V7.41741H170.601V90.3578H31.0186Z" fill="white"/>
<path d="M160.486 76.8716V8.09174H170.601V84.9633H121.376C107.89 86.3119 107.89 88.1101 100.472 89.6835C109.643 83.7495 144.303 78.6697 160.486 76.8716Z" fill="#E18EAA"/>
<path d="M20.2292 126.771L32.3669 102.495H168.578L183.413 125.422L20.2292 126.771Z" fill="white"/>
<path d="M35.7387 111.936V106.541H51.2479V111.936H35.7387Z" fill="#593F2C"/>
<path d="M55.2938 111.936V106.541H75.5231V111.936H55.2938Z" fill="#593F2C"/>
<path d="M79.569 111.936V106.541H99.7984V111.936H79.569Z" fill="#593F2C"/>
<path d="M102.496 111.936V106.541H122.725V111.936H102.496Z" fill="#593F2C"/>
<path d="M126.771 111.936V106.541H141.606V111.936H126.771Z" fill="#593F2C"/>
<path d="M147 111.936V106.541H164.532L167.23 111.936H147Z" fill="#593F2C"/>
<path d="M151.046 121.376V115.982H169.927V121.376H151.046Z" fill="#593F2C"/>
<path d="M128.119 121.376V115.982H147V121.376H128.119Z" fill="#593F2C"/>
<path d="M103.844 121.376V115.982H122.725V121.376H103.844Z" fill="#593F2C"/>
<path d="M75.5231 121.376V115.982H99.7984V121.376H75.5231Z" fill="#593F2C"/>
<path d="M51.2479 121.376V115.982H71.4773V121.376H51.2479Z" fill="#593F2C"/>
<path d="M47.202 121.376V115.982H28.3213V121.376H47.202Z" fill="#593F2C"/>
<rect x="78.22" y="132.165" width="45.8532" height="8.09174" fill="white"/>
<path d="M100.664 8.98782V89.8783" stroke="#ADADAD" stroke-width="0.2" stroke-linecap="round"/>
</svg>
